<svg xmlns="http://www.w3.org/2000/svg" version="1.1" xmlns:xlink="http://www.w3.org/1999/xlink" xmlns:svgjs="http://svgjs.dev/svgjs" width="800" height="800" preserveAspectRatio="none" viewBox="0 0 800 800"><g mask="url(&quot;#SvgjsMask1050&quot;)" fill="none"><rect width="800" height="800" x="0" y="0" fill="rgba(16, 87, 14, 1)"></rect><path d="M118 323L117 -242" stroke-width="10" stroke="url(&quot;#SvgjsLinearGradient1051&quot;)" stroke-linecap="round" class="Down"></path><path d="M54 102L53 504" stroke-width="8" stroke="url(&quot;#SvgjsLinearGradient1052&quot;)" stroke-linecap="round" class="Up"></path><path d="M400 560L399 772" stroke-width="10" stroke="url(&quot;#SvgjsLinearGradient1051&quot;)" stroke-linecap="round" class="Down"></path><path d="M672 672L671 1039" stroke-width="8" stroke="url(&quot;#SvgjsLinearGradient1052&quot;)" stroke-linecap="round" class="Up"></path><path d="M153 770L152 990" stroke-width="10" stroke="url(&quot;#SvgjsLinearGradient1052&quot;)" stroke-linecap="round" class="Up"></path><path d="M605 30L604 -364" stroke-width="8" stroke="url(&quot;#SvgjsLinearGradient1052&quot;)" stroke-linecap="round" class="Up"></path><path d="M262 306L261 715" stroke-width="6" stroke="url(&quot;#SvgjsLinearGradient1052&quot;)" stroke-linecap="round" class="Up"></path><path d="M109 135L108 -444" stroke-width="8" stroke="url(&quot;#SvgjsLinearGradient1052&quot;)" stroke-linecap="round" class="Up"></path><path d="M490 791L489 446" stroke-width="6" stroke="url(&quot;#SvgjsLinearGradient1052&quot;)" stroke-linecap="round" class="Up"></path><path d="M414 512L413 992" stroke-width="6" stroke="url(&quot;#SvgjsLinearGradient1052&quot;)" stroke-linecap="round" class="Up"></path><path d="M534 540L533 771" stroke-width="6" stroke="url(&quot;#SvgjsLinearGradient1052&quot;)" stroke-linecap="round" class="Up"></path><path d="M356 503L355 772" stroke-width="6" stroke="url(&quot;#SvgjsLinearGradient1051&quot;)" stroke-linecap="round" class="Down"></path><path d="M367 676L366 300" stroke-width="6" stroke="url(&quot;#SvgjsLinearGradient1051&quot;)" stroke-linecap="round" class="Down"></path><path d="M188 521L187 825" stroke-width="6" stroke="url(&quot;#SvgjsLinearGradient1051&quot;)" stroke-linecap="round" class="Down"></path><path d="M227 116L226 -354" stroke-width="8" stroke="url(&quot;#SvgjsLinearGradient1052&quot;)" stroke-linecap="round" class="Up"></path><path d="M702 90L701 -346" stroke-width="10" stroke="url(&quot;#SvgjsLinearGradient1051&quot;)" stroke-linecap="round" class="Down"></path><path d="M192 552L191 29" stroke-width="10" stroke="url(&quot;#SvgjsLinearGradient1051&quot;)" stroke-linecap="round" class="Down"></path><path d="M202 22L201 -509" stroke-width="6" stroke="url(&quot;#SvgjsLinearGradient1052&quot;)" stroke-linecap="round" class="Up"></path><path d="M511 695L510 1174" stroke-width="6" stroke="url(&quot;#SvgjsLinearGradient1051&quot;)" stroke-linecap="round" class="Down"></path><path d="M562 270L561 571" stroke-width="10" stroke="url(&quot;#SvgjsLinearGradient1051&quot;)" stroke-linecap="round" class="Down"></path></g><defs><mask id="SvgjsMask1050"><rect width="800" height="800" fill="#ffffff"></rect></mask><linearGradient x1="0%" y1="0%" x2="0%" y2="100%" id="SvgjsLinearGradient1051"><stop stop-color="rgba(32, 177, 69, 0)" offset="0"></stop><stop stop-color="rgba(32, 177, 69, 1)" offset="1"></stop></linearGradient><linearGradient x1="0%" y1="100%" x2="0%" y2="0%" id="SvgjsLinearGradient1052"><stop stop-color="rgba(32, 177, 69, 0)" offset="0"></stop><stop stop-color="rgba(32, 177, 69, 1)" offset="1"></stop></linearGradient></defs></svg>